<?xml version="1.0" encoding="UTF-8"?>
<svg version="1.1" xmlns="http://www.w3.org/2000/svg" width="150" height="40">
<path d="M0 0 C0.33 0.66 0.66 1.32 1 2 C0.02059602 4.34205301 -0.98034573 6.67518826 -2 9 C-2 9.99 -2 10.98 -2 12 C0.53221566 9.78169537 1.43794914 8.09953448 2.3125 4.875 C3.0546875 2.7421875 3.0546875 2.7421875 4 1 C7.98477993 -0.35652083 11.80680204 0 16 0 C15.34 1.98 14.68 3.96 14 6 C15.70840281 4.36587557 16.93453047 3.13093906 18 1 C19.65 1 21.3 1 23 1 C22.77183594 1.61488281 22.54367188 2.22976562 22.30859375 2.86328125 C21.87740234 4.07564453 21.87740234 4.07564453 21.4375 5.3125 C21.14746094 6.11300781 20.85742188 6.91351563 20.55859375 7.73828125 C19.75084375 10.1433174 19.75084375 10.1433174 21 13 C23.03933349 11.31415098 23.91873345 10.40992861 24.44140625 7.7734375 C24.48136719 6.98195313 24.52132812 6.19046875 24.5625 5.375 C24.69140625 2.9609375 24.69140625 2.9609375 25 1 C25.66 0.67 26.32 0.34 27 0 C28.5 1.3125 28.5 1.3125 30 3 C30 3.99 30 4.98 30 6 C32.50330998 4.53973584 34.81424918 3.16253197 37 1.25 C39 0 39 0 41.625 0.0625 C44 1 44 1 45.3125 3.0625 C45.6528125 4.0215625 45.6528125 4.0215625 46 5 C43.45543849 7.96865509 40.51005335 9.3619751 37 11 C40.47147842 11.74957157 40.47147842 11.74957157 44 12 C44.1546875 11.0409375 44.1546875 11.0409375 44.3125 10.0625 C44.6528125 9.0415625 44.6528125 9.0415625 45 8 C45.99 7.67 46.98 7.34 48 7 C48.061875 6.21625 48.12375 5.4325 48.1875 4.625 C49 2 49 2 51.3125 0.5625 C54 0 54 0 56.3125 0.875 C56.869375 1.24625 57.42625 1.6175 58 2 C58 3.65 58 5.3 58 7 C57.01 7.33 56.02 7.66 55 8 C55.99 9.485 55.99 9.485 57 11 C58.65 8.69 60.3 6.38 62 4 C63 8 63 8 62.1015625 9.88671875 C59.13969521 13.49894314 57.04774078 15.42700124 52.3125 16.0625 C48.76231436 16.31389484 48.13198725 16.0879915 45 14 C44.484375 14.350625 43.96875 14.70125 43.4375 15.0625 C40.00608541 16.38227484 37.53942718 15.78653937 34 15 C32.04783565 13.04783565 31.15173355 11.46800047 30 9 C29.38125 10.175625 29.38125 10.175625 28.75 11.375 C26.90614381 14.14078428 26.1554001 15.09845711 23 16 C17.56521739 15.56521739 17.56521739 15.56521739 15 13 C15 11.68 15 10.36 15 9 C13.02 8.34 11.04 7.68 9 7 C8.54560547 7.86625 8.54560547 7.86625 8.08203125 8.75 C6.83120713 10.96684521 5.59624002 13.01560325 4 15 C1.4375 15.4375 1.4375 15.4375 -1 15 C-1.70125 15.20625 -2.4025 15.4125 -3.125 15.625 C-3.74375 15.74875 -4.3625 15.8725 -5 16 C-5.99 15.34 -6.98 14.68 -8 14 C-8.99 14.66 -9.98 15.32 -11 16 C-14.51724138 15.48275862 -14.51724138 15.48275862 -16 14 C-15.94921875 12.07421875 -15.94921875 12.07421875 -15.6875 9.6875 C-15.60886719 8.90761719 -15.53023438 8.12773437 -15.44921875 7.32421875 C-14.98413721 4.91792729 -14.19341444 3.12866168 -13 1 C-11.35 1 -9.7 1 -8 1 C-9.33333333 5 -10.66666667 9 -12 13 C-8.47079918 9.97497073 -6.87346204 6.91426804 -5.125 2.70703125 C-4 1 -4 1 -1.875 0.26171875 C-1.25625 0.17535156 -0.6375 0.08898437 0 0 Z M39 3 C38.34 4.32 37.68 5.64 37 7 C38.32 6.34 39.64 5.68 41 5 C41 4.34 41 3.68 41 3 C40.34 3 39.68 3 39 3 Z M52 3 C52.33 3.99 52.66 4.98 53 6 C53.33 5.01 53.66 4.02 54 3 C53.34 3 52.68 3 52 3 Z M50 9 C49.34 10.32 48.68 11.64 48 13 C49.32 13 50.64 13 52 13 C51.67 11.68 51.34 10.36 51 9 C50.67 9 50.34 9 50 9 Z " fill="#333333" transform="translate(87,17)"/>
<path d="M0 0 C3.19464347 0.51526508 5.91846124 -0.70050656 8.9375 -1.6875 C8.9375 -0.6975 8.9375 0.2925 8.9375 1.3125 C7.2875 1.9725 5.6375 2.6325 3.9375 3.3125 C4.576875 4.1375 5.21625 4.9625 5.875 5.8125 C8.30238971 9.48826157 9.13977498 12.91521793 8.9375 17.3125 C7.65708527 21.47384788 6.10473187 23.45729303 2.4375 25.625 C-1.4681221 27.5080678 -4.02513365 28.46382126 -8.29296875 28.19140625 C-9.09541016 28.14306641 -9.89785156 28.09472656 -10.72460938 28.04492188 C-11.55798828 27.98884766 -12.39136719 27.93277344 -13.25 27.875 C-14.09498047 27.82279297 -14.93996094 27.77058594 -15.81054688 27.71679688 C-17.89486299 27.58726311 -19.97873182 27.45056823 -22.0625 27.3125 C-22.0625 26.3225 -22.0625 25.3325 -22.0625 24.3125 C-19.0925 24.3125 -16.1225 24.3125 -13.0625 24.3125 C-12.4025 22.9925 -11.7425 21.6725 -11.0625 20.3125 C-11.3925 20.6425 -11.7225 20.9725 -12.0625 21.3125 C-18.21212594 20.97085411 -18.21212594 20.97085411 -21 18.8125 C-22.64483314 14.94230438 -22.81536507 11.44250269 -22.0625 7.3125 C-16.76902995 -1.34954189 -9.21811124 -3.07270375 0 0 Z M-17.0625 4.3125 C-18.30137548 6.79025095 -18.22991669 8.54903707 -18.25 11.3125 C-18.26417969 12.199375 -18.27835938 13.08625 -18.29296875 14 C-18.28963126 16.50769984 -18.28963126 16.50769984 -16.0625 18.3125 C-13.47895782 18.47937448 -13.47895782 18.47937448 -11.0625 18.3125 C-9.85977181 15.90704362 -9.96178528 14.36253047 -10 11.6875 C-10.00902344 10.87023438 -10.01804687 10.05296875 -10.02734375 9.2109375 C-10.03894531 8.58445312 -10.05054688 7.95796875 -10.0625 7.3125 C-7.55166886 8.56791557 -7.19124554 9.81313488 -6.0625 12.3125 C-5.78535156 11.75820313 -5.50820313 11.20390625 -5.22265625 10.6328125 C-3.8359375 7.859375 -2.44921875 5.0859375 -1.0625 2.3125 C-6.25164316 -0.28207158 -12.6581655 0.73397822 -17.0625 4.3125 Z M0.9375 5.3125 C0.55078125 6.33730469 0.1640625 7.36210937 -0.234375 8.41796875 C-0.75994784 9.77882699 -1.28601584 11.13949407 -1.8125 12.5 C-2.19148438 13.51030273 -2.19148438 13.51030273 -2.578125 14.54101562 C-4.2091922 18.72062531 -6.0331962 21.92099683 -9.0625 25.3125 C-5.77323505 25.81446294 -5.77323505 25.81446294 -2.0625 25.3125 C2.01631322 21.9430456 3.20292993 19.40956166 3.875 14.1875 C4.18559122 10.56205335 3.79667098 8.4521117 1.9375 5.3125 C1.6075 5.3125 1.2775 5.3125 0.9375 5.3125 Z " fill="#333333" transform="translate(22.0625,4.6875)"/>
<path d="M0 0 C0.99 0 1.98 0 3 0 C2.03283756 3.63476081 1.17909327 4.87193997 -1.93359375 7.09765625 C-3.09354256 7.76670522 -4.2618875 8.42137362 -5.4375 9.0625 C-12.08914996 12.69612204 -12.08914996 12.69612204 -15.6171875 19.1484375 C-16.21428357 24.3051763 -16.16406986 27.6111289 -13 32 C-8.200589 36.21411698 -3.13178805 37.07901998 3 38 C2.67 38.66 2.34 39.32 2 40 C-4.96541522 40.50453712 -9.31356464 40.20796217 -15 36 C-18.4081628 32.40761218 -20.95021935 28.98130762 -21.03515625 23.89453125 C-20.67112674 18.59390648 -19.61152916 15.06297031 -16 11 C-11.30233561 7.35618427 -6.30508481 4.6525424 -1 2 C-0.67 1.34 -0.34 0.68 0 0 Z " fill="#333333" transform="translate(76,0)"/>
<path d="M0 0 C0.7425 0.165 1.485 0.33 2.25 0.5 C5.18606431 1.03382988 7.13588733 0.73648612 10 0 C9.67 1.98 9.34 3.96 9 6 C10.65 5.34 12.3 4.68 14 4 C13.34 5.32 12.68 6.64 12 8 C9.125 8.125 9.125 8.125 6 8 C5.34 7.34 4.68 6.68 4 6 C1.67527795 8.85306797 0.2491742 11.54074837 -1 15 C-2.65 15 -4.3 15 -6 15 C-5.38602623 10.24170326 -3.4893031 3.4893031 0 0 Z " fill="#333333" transform="translate(36,17)"/>
<path d="M0 0 C1.98 0.495 1.98 0.495 4 1 C4 2.32 4 3.64 4 5 C2.35 4.67 0.7 4.34 -1 4 C-0.67 2.68 -0.34 1.36 0 0 Z " fill="#333333" transform="translate(44,27)"/>
</svg>
